<?xml version="1.0" standalone="no"?>
<!DOCTYPE svg PUBLIC "-//W3C//DTD SVG 20010904//EN"
 "http://www.w3.org/TR/2001/REC-SVG-20010904/DTD/svg10.dtd">
<svg version="1.0" xmlns="http://www.w3.org/2000/svg"
 width="3464.000000pt" height="3464.000000pt" viewBox="0 0 3464.000000 3464.000000"
 preserveAspectRatio="xMidYMid meet">

<g transform="translate(0.000000,3464.000000) scale(0.100000,-0.100000)"
fill="#000000" stroke="none">
<path d="M16430 33019 c-35 -18 -100 -26 -386 -49 -73 -6 -179 -20 -235 -31
-57 -11 -167 -24 -244 -30 -80 -5 -185 -20 -243 -34 -57 -14 -145 -30 -195
-35 -51 -6 -137 -22 -192 -35 -55 -13 -130 -29 -165 -34 -36 -5 -102 -21 -146
-34 -45 -14 -108 -28 -140 -32 -33 -4 -93 -18 -134 -30 -41 -13 -102 -29 -135
-35 -33 -7 -89 -23 -125 -35 -36 -13 -92 -29 -125 -35 -33 -7 -80 -21 -105
-32 -25 -10 -81 -26 -124 -34 -44 -9 -93 -22 -108 -30 -27 -14 -145 -56 -253
-90 -27 -9 -75 -25 -105 -36 -30 -11 -85 -28 -121 -38 -37 -10 -90 -30 -118
-44 -27 -14 -57 -26 -65 -26 -8 0 -38 -13 -68 -28 -29 -16 -75 -34 -102 -41
-27 -6 -69 -22 -95 -35 -25 -13 -59 -26 -76 -30 -28 -7 -98 -38 -240 -107 -33
-16 -64 -29 -70 -29 -5 0 -37 -13 -70 -29 -33 -16 -94 -45 -135 -64 -124 -58
-279 -134 -386 -191 -56 -29 -110 -56 -120 -60 -30 -10 -254 -135 -344 -191
-30 -19 -75 -45 -100 -57 -25 -13 -59 -33 -76 -45 -17 -12 -44 -27 -59 -33
-15 -6 -47 -24 -71 -40 -24 -17 -64 -43 -88 -60 -24 -16 -49 -30 -54 -30 -5 0
-29 -16 -53 -35 -24 -19 -48 -35 -53 -35 -4 0 -30 -16 -56 -35 -26 -19 -52
-35 -57 -35 -6 0 -18 -10 -29 -21 -10 -12 -37 -30 -59 -41 -22 -10 -67 -38
-100 -63 -33 -24 -84 -62 -114 -82 -30 -21 -66 -47 -81 -58 -15 -11 -51 -37
-81 -58 -129 -90 -149 -104 -185 -132 -22 -16 -41 -33 -44 -36 -3 -3 -45 -36
-95 -74 -156 -118 -484 -388 -561 -461 -22 -21 -60 -55 -83 -74 -86 -72 -556
-516 -611 -578 -19 -21 -106 -114 -194 -207 -87 -92 -168 -179 -180 -193 -11
-14 -32 -37 -46 -52 -56 -61 -80 -89 -151 -170 -41 -47 -90 -105 -109 -129
-19 -24 -48 -59 -63 -77 -16 -19 -38 -47 -50 -63 -19 -25 -143 -184 -235 -300
-75 -93 -121 -157 -172 -236 -11 -16 -36 -50 -55 -75 -19 -25 -44 -58 -55 -75
-40 -62 -86 -127 -112 -159 -16 -19 -28 -38 -28 -43 0 -6 -15 -30 -33 -54 -18
-24 -38 -55 -45 -69 -7 -14 -22 -39 -35 -56 -12 -18 -30 -45 -39 -60 -10 -16
-31 -49 -48 -74 -42 -65 -113 -177 -130 -208 -8 -15 -26 -45 -40 -67 -13 -22
-33 -56 -43 -75 -9 -19 -35 -64 -57 -100 -22 -36 -49 -85 -61 -110 -12 -25
-27 -52 -35 -60 -11 -13 -118 -216 -160 -305 -8 -16 -22 -43 -31 -60 -29 -55
-110 -219 -141 -285 -16 -36 -48 -104 -71 -151 -22 -47 -41 -90 -41 -95 0 -5
-13 -36 -29 -69 -46 -91 -132 -296 -158 -375 -9 -25 -26 -67 -39 -95 -13 -27
-32 -75 -43 -105 -10 -30 -28 -77 -38 -105 -23 -56 -58 -157 -79 -225 -8 -25
-22 -65 -30 -90 -9 -25 -25 -72 -36 -105 -10 -33 -24 -73 -29 -90 -47 -134
-74 -226 -106 -350 -9 -33 -24 -87 -35 -120 -10 -33 -26 -89 -34 -125 -9 -36
-26 -101 -39 -145 -14 -44 -29 -114 -35 -155 -6 -41 -22 -109 -35 -150 -13
-41 -29 -109 -35 -150 -6 -41 -20 -110 -31 -153 -11 -43 -27 -131 -35 -195 -8
-64 -24 -151 -35 -192 -11 -41 -26 -142 -34 -225 -8 -82 -24 -199 -35 -260
-11 -60 -25 -186 -31 -280 -6 -93 -19 -251 -30 -350 -49 -435 -46 -1389 6
-1835 8 -69 19 -197 25 -285 5 -88 21 -225 34 -305 13 -80 27 -183 31 -230 4
-47 20 -146 35 -220 15 -74 31 -166 35 -204 4 -38 17 -110 30 -160 13 -50 29
-127 35 -171 6 -44 22 -114 35 -155 13 -41 26 -102 30 -135 4 -33 20 -100 35
-150 16 -49 31 -110 35 -134 4 -24 20 -82 36 -129 16 -47 29 -94 29 -104 0
-10 16 -69 36 -131 19 -61 51 -164 70 -227 20 -63 45 -137 56 -165 11 -27 28
-79 37 -115 10 -36 27 -87 39 -115 12 -27 26 -70 32 -95 7 -25 20 -58 30 -75
10 -16 25 -57 35 -90 9 -32 27 -80 39 -105 13 -25 26 -58 30 -75 4 -16 21 -57
37 -90 16 -33 29 -65 29 -72 0 -6 16 -44 35 -84 19 -41 35 -80 35 -87 0 -7 13
-39 29 -70 47 -91 90 -184 106 -230 8 -24 24 -56 35 -72 11 -15 20 -32 20 -37
0 -7 137 -292 163 -338 6 -11 27 -49 46 -85 18 -36 50 -94 69 -130 19 -36 48
-90 64 -120 16 -30 47 -84 68 -120 22 -36 48 -81 58 -100 10 -19 32 -57 50
-84 18 -28 32 -53 32 -58 0 -4 13 -27 28 -50 16 -24 46 -70 67 -103 21 -33 51
-79 67 -102 15 -23 28 -44 28 -48 0 -6 24 -43 127 -195 9 -14 37 -56 62 -93
25 -38 65 -97 89 -130 24 -34 51 -73 60 -87 9 -14 45 -63 79 -110 35 -47 75
-102 90 -123 16 -21 44 -58 63 -82 19 -24 51 -65 70 -90 72 -97 97 -128 160
-203 36 -43 81 -98 100 -122 117 -146 193 -237 208 -250 9 -8 67 -71 127 -140
61 -69 250 -265 420 -436 273 -273 374 -371 554 -530 24 -21 56 -50 71 -64 14
-14 49 -43 75 -65 27 -22 84 -69 126 -105 68 -57 147 -122 295 -240 24 -19 62
-48 84 -65 22 -16 61 -46 85 -65 94 -74 274 -206 359 -262 39 -26 87 -58 106
-73 102 -76 130 -95 137 -95 4 0 28 -16 52 -35 24 -19 48 -35 53 -35 5 0 30
-16 55 -35 25 -19 50 -35 55 -35 5 0 28 -13 51 -29 75 -51 189 -121 327 -201
41 -23 87 -51 101 -61 15 -10 48 -29 75 -42 27 -13 83 -43 124 -67 41 -23 93
-52 115 -64 46 -24 51 -46 15 -63 -39 -18 -433 -62 -660 -73 -113 -5 -299 -21
-415 -35 -115 -13 -280 -31 -365 -40 -85 -8 -211 -24 -280 -35 -69 -10 -155
-19 -191 -20 -91 0 -252 -17 -384 -40 -60 -11 -141 -22 -180 -25 -87 -8 -189
-22 -282 -41 -39 -7 -140 -20 -225 -29 -84 -8 -198 -23 -253 -34 -55 -11 -147
-25 -205 -31 -58 -7 -148 -22 -200 -35 -52 -13 -142 -29 -200 -35 -58 -6 -152
-22 -210 -35 -58 -13 -150 -29 -205 -35 -55 -6 -141 -22 -190 -35 -49 -14
-102 -25 -117 -25 -15 0 -78 -13 -140 -29 -62 -16 -150 -34 -196 -41 -45 -6
-111 -20 -145 -31 -34 -11 -109 -27 -167 -34 -58 -8 -132 -23 -164 -35 -32
-11 -89 -25 -125 -31 -36 -6 -100 -21 -141 -34 -41 -13 -102 -29 -135 -35 -33
-7 -90 -22 -127 -35 -37 -13 -91 -27 -120 -31 -29 -4 -89 -19 -133 -34 -44
-16 -96 -31 -115 -35 -19 -3 -73 -19 -120 -34 -47 -16 -112 -35 -145 -44 -60
-15 -149 -43 -235 -73 -25 -9 -72 -25 -105 -35 -33 -11 -80 -27 -105 -35 -25
-9 -72 -25 -105 -36 -33 -11 -90 -33 -126 -49 -36 -16 -74 -29 -84 -29 -9 0
-43 -13 -74 -29 -31 -16 -72 -32 -91 -36 -19 -4 -59 -21 -89 -36 -30 -16 -61
-29 -70 -29 -10 0 -48 -16 -87 -35 -38 -19 -73 -35 -78 -35 -5 0 -44 -16 -85
-36 -130 -62 -365 -176 -386 -187 -80 -44 -148 -80 -195 -103 -30 -15 -62 -33
-70 -40 -8 -7 -34 -23 -57 -36 -22 -13 -74 -43 -114 -68 -40 -25 -86 -53 -102
-62 -16 -9 -38 -24 -48 -34 -11 -10 -35 -27 -53 -39 -45 -27 -132 -89 -183
-128 -22 -17 -65 -51 -95 -73 -216 -167 -454 -411 -620 -636 -51 -67 -118
-168 -118 -176 0 -4 -11 -24 -25 -44 -48 -70 -168 -324 -180 -379 -4 -19 -18
-59 -30 -90 -13 -30 -30 -94 -39 -141 -15 -87 -38 -148 -56 -148 -6 0 -10
-142 -10 -385 0 -312 3 -385 14 -392 22 -13 34 -45 50 -134 8 -47 26 -113 39
-147 14 -33 28 -76 32 -94 7 -35 30 -87 115 -258 59 -120 126 -232 185 -310
14 -19 49 -66 77 -105 28 -38 67 -88 86 -110 70 -81 279 -288 347 -343 39 -31
104 -85 145 -119 108 -90 132 -108 159 -123 13 -6 44 -27 70 -46 25 -18 62
-45 81 -59 63 -46 155 -105 164 -105 5 0 23 -11 40 -24 17 -13 49 -33 71 -45
22 -12 69 -40 105 -61 36 -22 81 -46 100 -55 19 -8 51 -24 70 -35 19 -10 109
-56 200 -100 91 -45 191 -94 222 -111 31 -16 63 -29 71 -29 8 0 38 -13 68 -29
30 -15 72 -34 93 -41 22 -7 54 -21 73 -32 18 -11 59 -27 90 -35 32 -8 74 -23
93 -34 19 -10 60 -27 90 -37 30 -11 78 -28 105 -39 57 -23 123 -47 210 -74 33
-11 87 -29 120 -40 33 -11 80 -27 105 -36 25 -8 79 -27 120 -43 41 -15 95 -30
118 -34 24 -4 69 -17 100 -30 32 -13 80 -27 107 -31 28 -4 82 -20 120 -35 39
-15 92 -30 120 -35 27 -4 77 -17 110 -30 33 -12 94 -28 135 -35 41 -7 103 -23
138 -36 35 -13 86 -26 115 -30 29 -4 93 -19 142 -34 50 -16 122 -31 160 -35
38 -4 102 -18 143 -31 41 -13 115 -30 166 -39 50 -8 112 -21 136 -30 25 -9 92
-23 150 -31 57 -8 145 -25 195 -39 49 -13 124 -26 165 -30 41 -3 111 -15 155
-26 44 -11 139 -29 211 -39 72 -11 157 -26 190 -35 32 -8 102 -20 154 -26 52
-6 167 -23 255 -39 88 -16 198 -32 245 -36 47 -3 142 -16 211 -29 69 -14 179
-29 245 -35 65 -7 184 -22 264 -35 80 -13 210 -29 289 -35 79 -6 196 -20 260
-31 64 -10 207 -26 319 -34 112 -8 244 -22 295 -30 113 -17 287 -32 472 -40
77 -3 235 -17 350 -30 116 -13 262 -26 325 -30 150 -8 346 -22 545 -40 202
-17 300 -23 610 -35 138 -6 331 -16 430 -24 221 -18 562 -33 920 -41 354 -7
826 -33 895 -48 78 -17 4871 -17 4945 0 66 15 537 41 890 48 367 8 659 21 990
44 149 11 356 22 460 26 178 6 428 22 680 45 61 6 205 15 320 20 116 6 269 17
340 25 137 16 370 36 621 54 83 6 192 18 242 26 50 8 180 22 289 30 109 8 254
24 322 34 68 11 188 25 265 31 78 6 206 22 286 35 80 13 207 29 283 35 76 6
188 21 250 34 61 13 148 27 192 30 44 4 152 20 240 36 88 16 205 34 259 40 54
5 133 19 175 30 42 10 124 24 182 30 58 6 137 19 175 29 38 11 119 27 179 35
61 9 141 25 180 36 38 11 108 25 155 31 47 5 123 21 170 34 47 13 122 29 168
35 45 6 111 20 145 31 34 11 100 27 147 34 47 8 112 24 145 35 33 11 94 25
135 31 41 6 113 24 159 40 46 16 96 29 110 29 14 0 63 13 107 29 45 16 106 32
135 36 30 4 81 18 114 31 33 13 90 30 126 38 36 9 83 23 105 32 21 9 77 27
124 39 82 23 167 49 260 81 25 9 72 25 105 36 33 10 74 24 90 30 17 6 66 23
110 39 44 15 105 39 135 53 30 14 64 26 75 26 11 0 45 13 75 29 30 16 71 32
90 36 19 4 53 17 75 30 22 12 58 28 80 35 22 7 64 26 94 41 30 16 60 29 68 29
8 0 40 13 71 29 31 17 129 64 217 106 88 42 171 83 185 91 14 9 48 26 75 40
28 14 79 42 115 64 36 21 83 49 105 61 22 12 54 32 71 45 17 13 35 24 40 24 9
0 101 59 164 105 19 14 56 41 81 59 26 19 57 40 70 46 27 14 49 32 165 128 44
37 100 82 125 101 58 45 314 302 376 377 65 79 159 206 204 274 56 86 119 195
119 206 0 5 11 25 24 44 12 19 29 53 36 75 7 22 21 55 32 74 10 19 25 58 33
87 7 29 23 74 34 100 11 25 28 87 36 137 16 91 37 147 55 147 14 0 13 757 0
765 -21 13 -42 71 -55 150 -8 45 -25 109 -38 141 -14 33 -28 75 -32 94 -12 54
-128 299 -177 373 -15 23 -28 45 -28 50 0 17 -103 160 -223 309 -129 160 -343
369 -515 502 -30 22 -73 56 -95 73 -51 40 -138 101 -183 129 -19 11 -44 30
-57 42 -13 12 -26 22 -30 22 -7 0 -69 39 -172 107 -28 18 -54 33 -59 33 -5 0
-23 11 -40 23 -17 13 -53 35 -81 49 -27 14 -81 42 -120 63 -38 20 -88 46 -110
57 -22 11 -51 26 -65 34 -14 8 -41 22 -60 30 -19 8 -62 27 -95 43 -125 61
-212 101 -221 101 -5 0 -40 16 -78 35 -39 19 -76 35 -84 35 -8 0 -40 13 -71
29 -31 16 -72 32 -91 36 -19 4 -59 20 -90 35 -30 15 -71 31 -90 35 -19 4 -57
18 -85 31 -47 21 -88 36 -240 85 -57 19 -85 28 -185 63 -98 34 -179 59 -260
81 -47 13 -102 30 -123 39 -21 9 -72 24 -114 32 -42 9 -96 25 -120 35 -24 10
-74 24 -111 30 -37 7 -94 22 -127 34 -33 13 -93 28 -134 35 -41 7 -105 23
-141 35 -37 12 -91 26 -121 30 -30 4 -88 18 -129 31 -41 13 -106 28 -145 34
-38 5 -126 23 -195 39 -214 50 -322 73 -415 88 -49 8 -144 27 -210 43 -66 16
-151 32 -190 35 -38 4 -117 18 -174 31 -57 13 -147 29 -200 35 -53 5 -141 21
-196 34 -55 13 -151 28 -214 35 -63 6 -160 20 -215 31 -55 11 -144 24 -196 29
-118 12 -149 17 -279 41 -58 11 -161 24 -229 30 -68 5 -176 19 -239 29 -63 11
-170 25 -237 30 -168 14 -296 29 -396 45 -47 8 -173 21 -280 30 -107 8 -265
23 -350 34 -85 11 -236 25 -335 31 -255 16 -658 59 -697 75 -33 13 -19 40 35
68 52 28 130 70 220 120 26 15 65 38 85 52 20 14 42 25 49 25 6 0 24 11 40 24
15 13 46 31 68 40 22 9 49 25 60 35 11 9 54 37 95 61 80 47 154 94 210 135 19
14 49 33 67 43 43 23 380 254 463 317 25 19 68 50 95 70 28 19 70 51 95 70 25
19 56 43 70 52 14 9 42 31 62 48 20 16 58 46 83 65 81 63 163 129 286 231 42
35 109 92 150 126 41 33 95 81 120 105 25 23 93 85 150 137 149 135 705 694
830 836 59 66 122 137 142 158 20 20 53 58 74 85 21 26 65 79 98 118 33 39 74
89 90 110 17 21 44 54 60 73 17 20 39 47 48 61 9 14 32 43 50 66 86 109 158
203 212 279 20 28 51 70 70 95 19 25 64 88 99 140 36 52 96 140 135 195 38 55
83 123 100 150 17 28 49 77 71 110 21 33 42 67 46 75 7 15 45 75 109 172 19
29 35 58 35 64 0 5 12 26 26 45 14 19 35 52 45 74 11 22 37 69 59 105 21 36
52 90 68 120 16 30 46 85 66 123 20 37 51 95 69 130 18 34 38 71 44 82 7 11
21 40 32 65 11 25 26 56 34 70 15 25 66 132 200 420 16 36 43 91 58 122 16 31
29 63 29 70 0 7 16 46 35 87 19 40 35 78 35 85 0 6 16 44 35 85 19 40 35 79
35 88 0 8 11 37 25 65 14 27 32 75 41 106 9 31 27 77 39 102 12 25 26 61 30
80 4 19 16 55 27 80 11 25 28 74 38 110 10 36 27 88 38 115 30 75 90 265 98
310 4 22 20 72 35 112 16 39 29 83 29 96 0 14 13 65 29 114 17 48 35 117 41
152 6 35 20 86 31 113 11 27 24 84 30 126 6 43 21 111 34 152 13 41 28 111 35
155 6 44 22 123 35 175 13 52 28 135 35 185 6 49 22 139 35 200 12 60 26 148
30 195 4 47 18 150 31 230 13 80 29 219 35 310 5 91 16 219 24 285 31 255 38
456 37 980 0 292 -5 580 -11 640 -6 61 -17 178 -25 260 -9 83 -20 220 -25 305
-6 85 -21 220 -35 300 -13 80 -27 188 -31 240 -4 52 -17 140 -30 196 -13 56
-31 153 -39 217 -8 64 -24 151 -35 194 -11 43 -25 113 -31 156 -6 43 -20 104
-31 135 -11 31 -29 104 -39 162 -18 98 -28 139 -81 323 -11 39 -28 99 -36 132
-9 33 -24 87 -35 120 -10 33 -26 89 -35 125 -8 36 -28 101 -44 145 -15 44 -33
100 -40 125 -6 25 -19 61 -29 80 -9 19 -23 60 -30 90 -7 30 -21 71 -31 91 -9
19 -25 64 -34 100 -9 35 -25 78 -35 94 -10 17 -25 56 -34 87 -9 32 -25 72 -35
90 -11 18 -25 53 -31 78 -6 25 -20 59 -29 76 -10 17 -24 48 -30 70 -12 39 -46
119 -108 251 -18 39 -33 75 -33 80 0 4 -16 42 -36 83 -62 128 -93 193 -113
240 -11 25 -26 56 -34 70 -30 54 -57 107 -77 150 -12 25 -28 56 -36 70 -8 14
-28 52 -44 85 -16 33 -34 67 -39 75 -6 8 -19 33 -29 55 -24 48 -79 147 -133
235 -22 36 -47 81 -57 100 -9 19 -27 49 -38 65 -12 17 -29 46 -38 65 -9 19
-39 69 -66 110 -27 41 -56 89 -65 105 -8 17 -26 44 -40 60 -14 17 -25 35 -25
40 0 6 -16 30 -35 54 -19 24 -35 49 -35 54 0 6 -9 20 -20 32 -10 11 -30 39
-42 61 -25 44 -75 118 -138 204 -57 78 -73 100 -196 275 -153 219 -590 750
-809 984 -345 369 -560 583 -859 854 -17 15 -44 40 -61 56 -50 46 -316 273
-384 326 -35 28 -93 75 -130 105 -36 31 -101 83 -144 115 -43 33 -96 74 -117
90 -22 17 -96 71 -166 120 -69 50 -140 101 -157 115 -17 14 -45 34 -63 45 -17
11 -58 38 -90 60 -86 60 -127 87 -180 119 -27 16 -58 37 -69 46 -11 10 -36 26
-55 35 -19 10 -46 26 -60 37 -43 33 -145 98 -153 98 -4 0 -30 15 -57 33 -81
53 -135 86 -156 93 -10 4 -37 19 -59 33 -22 15 -56 35 -75 44 -19 10 -64 36
-100 57 -36 22 -92 53 -125 70 -88 44 -137 70 -165 86 -14 9 -45 24 -70 35
-25 11 -54 25 -65 31 -45 26 -202 105 -235 118 -19 7 -46 21 -60 30 -14 10
-43 23 -65 30 -22 7 -65 25 -95 40 -126 64 -206 100 -219 100 -8 0 -33 11 -55
24 -23 13 -65 31 -95 40 -30 9 -64 22 -76 30 -12 8 -48 22 -79 31 -31 9 -75
27 -99 40 -23 13 -58 26 -77 30 -19 4 -57 19 -84 32 -27 14 -73 31 -103 39
-29 8 -72 23 -93 34 -22 11 -63 25 -90 30 -28 5 -74 20 -103 33 -28 14 -76 29
-105 36 -29 6 -69 19 -90 30 -20 10 -69 26 -108 35 -40 8 -91 24 -115 34 -24
11 -75 25 -113 31 -38 7 -95 23 -125 35 -31 13 -87 29 -124 35 -38 7 -103 23
-145 35 -43 13 -99 27 -125 31 -27 3 -85 17 -130 31 -45 14 -116 29 -157 35
-41 6 -120 21 -175 34 -55 13 -142 29 -193 35 -51 6 -138 21 -195 35 -56 13
-158 29 -227 35 -69 6 -170 20 -225 31 -55 11 -199 26 -319 34 -245 17 -340
30 -357 51 -10 12 -143 14 -868 13 -807 -2 -858 -3 -891 -20z m1695 -1078 c99
-12 268 -27 375 -35 107 -9 244 -24 303 -35 60 -12 159 -25 220 -31 62 -6 157
-22 212 -35 55 -13 143 -29 195 -35 52 -6 133 -22 180 -35 47 -13 120 -29 163
-35 43 -6 103 -20 134 -31 30 -10 92 -25 137 -33 44 -8 104 -23 132 -34 28
-12 80 -26 115 -32 35 -6 83 -20 107 -31 24 -10 78 -26 120 -34 42 -9 97 -25
121 -36 24 -11 73 -26 108 -34 35 -8 81 -24 103 -35 22 -11 63 -25 92 -31 29
-6 76 -21 103 -34 28 -12 73 -27 100 -34 28 -7 64 -21 80 -31 17 -10 53 -24
80 -31 28 -6 66 -20 85 -31 19 -10 64 -29 100 -42 103 -38 191 -75 240 -100
25 -13 56 -27 70 -31 14 -3 57 -21 95 -40 39 -18 102 -47 140 -65 148 -68 221
-102 250 -117 17 -9 108 -56 204 -105 96 -49 186 -97 200 -107 14 -10 46 -28
71 -40 25 -12 74 -39 110 -61 36 -21 85 -50 110 -63 25 -13 62 -34 82 -48 20
-13 56 -35 79 -49 39 -23 78 -48 214 -135 28 -18 64 -41 82 -51 18 -11 66 -43
108 -71 42 -29 78 -53 81 -53 4 0 20 -11 38 -26 30 -24 76 -57 186 -134 129
-90 218 -157 314 -235 41 -33 118 -94 171 -135 233 -179 590 -496 876 -780
316 -313 673 -709 864 -959 44 -57 103 -131 130 -165 50 -60 98 -124 166 -219
19 -27 46 -63 60 -80 14 -18 34 -45 43 -62 9 -16 37 -57 61 -90 45 -61 116
-165 150 -220 10 -16 27 -38 37 -49 10 -11 18 -25 18 -31 0 -7 16 -33 35 -58
19 -25 35 -48 35 -52 0 -3 15 -27 33 -54 17 -27 41 -63 52 -82 11 -18 37 -60
58 -93 20 -34 45 -77 55 -96 9 -19 29 -53 44 -74 16 -21 28 -44 28 -51 0 -7 9
-23 20 -37 10 -14 33 -51 51 -84 54 -101 161 -307 181 -349 11 -22 25 -51 33
-65 14 -27 82 -162 146 -296 21 -44 39 -86 39 -93 0 -7 13 -38 29 -69 53 -101
101 -208 101 -224 0 -8 11 -37 25 -64 14 -27 32 -73 41 -102 8 -28 26 -71 39
-95 13 -23 26 -57 30 -76 4 -19 20 -61 36 -95 16 -34 29 -69 29 -79 0 -10 13
-49 29 -85 16 -37 32 -83 36 -102 3 -19 19 -69 35 -110 47 -125 81 -231 100
-315 10 -44 27 -102 38 -130 10 -27 24 -78 31 -113 7 -35 21 -83 31 -108 11
-25 26 -86 35 -137 8 -51 24 -119 35 -152 12 -33 25 -94 31 -135 6 -41 17 -92
24 -115 24 -72 34 -119 44 -215 6 -52 19 -129 30 -170 11 -41 25 -118 31 -170
16 -142 30 -237 45 -315 8 -38 19 -135 25 -215 6 -80 18 -215 26 -300 9 -85
19 -195 24 -245 5 -49 12 -261 15 -470 8 -409 -5 -837 -30 -1047 -9 -68 -22
-211 -30 -318 -8 -107 -24 -244 -35 -305 -11 -60 -25 -155 -30 -210 -6 -55
-24 -167 -40 -250 -16 -82 -36 -188 -44 -235 -9 -47 -22 -109 -30 -138 -9 -29
-20 -90 -26 -135 -6 -44 -20 -103 -31 -131 -10 -28 -26 -89 -34 -136 -8 -47
-26 -116 -40 -155 -13 -38 -25 -80 -25 -93 0 -13 -16 -70 -35 -128 -19 -57
-35 -114 -35 -127 0 -12 -12 -49 -25 -82 -14 -33 -32 -88 -40 -123 -8 -35 -24
-82 -35 -106 -10 -24 -24 -65 -30 -92 -6 -26 -24 -78 -40 -115 -17 -37 -30
-75 -30 -84 0 -9 -13 -47 -29 -83 -16 -37 -33 -80 -37 -97 -4 -16 -19 -55 -34
-85 -15 -30 -31 -71 -35 -90 -4 -19 -21 -59 -36 -89 -16 -30 -29 -61 -29 -70
0 -9 -13 -41 -29 -71 -16 -30 -32 -66 -35 -80 -4 -14 -23 -59 -43 -100 -19
-41 -47 -102 -63 -135 -46 -101 -102 -218 -118 -250 -9 -16 -24 -48 -34 -70
-11 -22 -26 -51 -33 -65 -8 -14 -26 -50 -41 -80 -14 -30 -34 -66 -43 -80 -10
-14 -22 -36 -26 -50 -4 -14 -16 -37 -26 -51 -10 -14 -32 -52 -50 -85 -17 -32
-45 -84 -61 -114 -16 -30 -36 -62 -44 -71 -8 -8 -14 -20 -14 -25 0 -6 -14 -32
-32 -60 -18 -27 -40 -65 -50 -84 -10 -19 -28 -49 -41 -66 -23 -33 -51 -77 -78
-126 -10 -16 -28 -46 -42 -66 -13 -20 -33 -51 -43 -68 -10 -18 -37 -58 -59
-89 -22 -32 -51 -75 -65 -95 -29 -43 -85 -124 -132 -191 -18 -26 -42 -60 -53
-75 -11 -16 -31 -45 -46 -64 -122 -163 -148 -197 -174 -231 -16 -21 -57 -73
-90 -116 -70 -91 -299 -361 -469 -553 -301 -339 -776 -799 -1102 -1067 -21
-18 -76 -63 -120 -100 -45 -37 -105 -86 -134 -108 -29 -22 -67 -52 -84 -66
-17 -14 -74 -58 -126 -97 -52 -39 -111 -82 -130 -97 -45 -34 -124 -90 -189
-135 -28 -19 -69 -48 -90 -65 -21 -16 -52 -38 -67 -47 -16 -10 -56 -35 -89
-57 -33 -22 -76 -49 -95 -61 -19 -12 -62 -39 -95 -61 -33 -22 -73 -47 -89 -57
-16 -9 -50 -32 -77 -49 -27 -18 -52 -33 -56 -33 -5 0 -25 -11 -45 -25 -20 -14
-56 -36 -80 -48 -24 -13 -72 -41 -108 -62 -65 -38 -114 -65 -224 -125 -33 -17
-71 -39 -85 -49 -14 -10 -42 -23 -61 -30 -19 -6 -51 -22 -70 -35 -19 -12 -50
-28 -68 -34 -18 -6 -46 -20 -61 -32 -16 -11 -33 -20 -38 -20 -8 0 -152 -67
-208 -98 -16 -8 -52 -27 -79 -40 -26 -13 -69 -40 -95 -59 -25 -19 -982 -974
-2127 -2122 -1145 -1147 -2106 -2103 -2136 -2124 -78 -53 -214 -97 -301 -97
-92 0 -232 47 -305 103 -29 22 -983 973 -2120 2114 -1137 1142 -2094 2096
-2126 2120 -33 25 -76 52 -95 60 -20 9 -48 24 -63 34 -15 11 -45 26 -68 34
-23 8 -53 23 -68 33 -15 11 -45 25 -67 32 -22 7 -52 21 -67 32 -15 10 -42 24
-60 30 -18 6 -44 19 -58 28 -14 10 -47 29 -75 43 -27 14 -86 44 -130 67 -44
23 -98 52 -120 64 -23 11 -55 31 -72 44 -17 12 -35 22 -39 22 -5 0 -33 15 -64
33 -30 18 -89 53 -130 77 -41 24 -87 54 -102 66 -16 13 -38 26 -50 30 -13 4
-41 19 -63 34 -22 14 -65 42 -95 62 -69 44 -80 51 -182 119 -45 31 -96 64
-112 75 -52 34 -154 107 -227 162 -20 15 -78 56 -129 92 -51 36 -105 76 -120
90 -15 14 -69 57 -119 95 -120 91 -432 355 -644 545 -50 44 -296 281 -366 351
-128 129 -285 293 -352 369 -99 110 -435 503 -464 541 -11 14 -40 52 -65 84
-25 32 -56 73 -70 91 -14 18 -45 59 -70 91 -25 32 -57 76 -72 98 -15 22 -41
58 -57 80 -29 38 -57 77 -134 186 -39 56 -58 84 -116 174 -25 39 -51 76 -58
83 -8 8 -21 28 -29 45 -9 18 -22 39 -29 47 -8 8 -24 33 -37 56 -35 62 -59 101
-100 163 -21 31 -38 59 -38 64 0 4 -13 26 -30 49 -16 22 -30 46 -30 53 0 7 -9
24 -21 39 -12 15 -34 53 -51 84 -16 31 -45 84 -64 117 -18 33 -47 85 -63 115
-76 143 -99 187 -114 215 -9 17 -23 46 -31 65 -8 19 -21 46 -29 60 -8 14 -31
61 -52 105 -21 44 -52 112 -70 150 -82 173 -104 222 -110 245 -4 14 -21 49
-36 79 -16 30 -29 61 -29 70 0 9 -13 41 -29 71 -16 30 -32 71 -36 90 -4 19
-17 53 -28 75 -19 37 -50 118 -92 240 -10 28 -26 73 -37 100 -11 28 -31 84
-43 125 -13 41 -33 102 -44 135 -43 127 -64 193 -87 280 -13 50 -30 106 -39
125 -8 19 -22 69 -30 110 -9 41 -24 99 -35 128 -11 29 -25 85 -31 124 -6 40
-22 105 -35 146 -14 41 -29 107 -35 148 -5 40 -17 97 -25 126 -8 29 -22 94
-30 143 -9 50 -27 144 -41 210 -14 66 -31 176 -39 245 -7 69 -23 174 -34 233
-10 59 -24 178 -30 265 -6 86 -20 229 -31 317 -43 356 -46 1384 -5 1710 9 66
22 212 31 325 9 113 26 268 39 345 13 77 29 186 35 243 6 57 20 139 31 182 11
43 27 129 35 191 8 63 24 141 34 174 10 33 24 96 31 140 7 44 22 114 35 155
13 41 28 107 34 147 6 39 19 91 30 115 10 25 24 71 31 104 6 32 24 100 40 149
16 50 35 117 44 150 17 71 48 165 83 255 14 36 33 94 43 130 9 36 26 88 37
115 11 28 27 70 36 95 14 43 26 75 77 200 13 30 31 80 42 110 10 30 27 71 37
90 10 19 24 53 30 75 7 22 23 63 36 90 13 28 42 89 64 136 23 47 41 90 41 95
0 5 15 41 34 79 19 39 55 113 80 165 25 52 52 106 60 120 8 14 23 43 34 65 41
85 151 293 187 355 21 36 50 88 65 117 15 28 37 64 49 79 11 14 21 31 21 36 0
13 104 186 170 283 11 17 39 59 62 95 103 163 180 279 241 363 20 29 54 76 75
106 56 81 64 93 96 136 17 22 48 65 70 95 22 30 61 80 86 110 25 30 59 72 75
94 17 21 41 53 55 71 14 17 40 51 58 75 18 24 56 71 86 104 30 34 118 135 197
226 255 295 696 738 954 959 66 57 134 115 150 131 17 15 69 60 116 101 82 70
109 92 229 184 29 22 83 65 120 95 108 88 283 216 358 264 23 15 70 48 104 73
34 26 98 71 142 100 45 29 95 62 111 73 17 11 59 39 95 62 36 22 88 55 115 73
125 80 149 95 157 95 5 0 32 16 61 35 28 19 55 35 60 35 5 0 28 14 52 30 24
17 47 30 52 30 5 0 26 12 48 27 39 26 62 39 190 107 33 18 69 37 80 44 11 6
40 20 65 31 25 11 56 26 70 35 14 8 43 23 65 34 22 10 87 43 145 71 186 94
245 121 259 121 7 0 39 13 70 29 98 51 207 101 220 101 8 0 48 16 91 35 43 19
84 35 92 35 9 0 39 13 69 29 30 15 70 32 89 36 19 4 53 17 76 30 22 13 71 31
107 39 37 9 84 24 105 35 20 10 62 24 92 30 30 7 77 22 105 35 27 13 66 27 85
31 19 4 67 20 105 35 39 15 93 31 120 35 28 4 75 17 105 30 30 13 83 28 118
35 34 6 90 22 125 35 35 13 93 27 128 31 35 3 98 17 139 30 41 12 104 28 140
34 36 6 103 22 150 35 47 13 128 29 180 35 52 6 140 21 195 35 55 13 150 29
212 35 61 5 160 19 220 31 59 11 196 26 303 34 107 8 258 22 335 31 227 27
410 32 955 29 438 -3 542 -7 695 -24z m-4766 -23579 c490 -492 505 -509 467
-541 -21 -18 -146 -30 -486 -46 -173 -8 -400 -23 -505 -34 -104 -11 -242 -22
-305 -26 -220 -12 -386 -26 -535 -45 -82 -11 -219 -24 -304 -30 -84 -6 -228
-22 -320 -35 -91 -13 -211 -26 -266 -30 -55 -3 -165 -17 -245 -31 -80 -13
-201 -29 -270 -35 -69 -6 -174 -21 -235 -34 -60 -13 -164 -29 -230 -35 -66 -6
-156 -20 -199 -30 -44 -11 -135 -27 -202 -35 -67 -9 -144 -22 -171 -30 -26 -8
-109 -24 -183 -35 -74 -10 -155 -26 -180 -35 -25 -9 -87 -22 -139 -30 -52 -8
-133 -26 -180 -39 -47 -13 -107 -27 -134 -31 -26 -3 -80 -17 -120 -31 -39 -13
-103 -29 -142 -35 -38 -6 -97 -22 -131 -34 -34 -13 -94 -28 -133 -34 -40 -6
-90 -20 -112 -31 -21 -11 -70 -27 -109 -35 -39 -8 -87 -23 -108 -34 -20 -10
-70 -25 -109 -34 -40 -9 -89 -25 -110 -35 -21 -11 -65 -27 -97 -36 -32 -10
-68 -23 -80 -31 -12 -7 -44 -20 -73 -28 -29 -9 -72 -27 -96 -41 -24 -14 -50
-26 -58 -26 -12 0 -146 -61 -204 -93 -11 -6 -47 -25 -80 -42 -121 -64 -236
-132 -295 -176 -19 -14 -70 -51 -113 -83 -189 -140 -362 -357 -417 -524 -10
-31 -26 -77 -35 -102 -24 -64 -23 -307 0 -370 9 -25 25 -72 36 -105 11 -33 31
-77 44 -97 14 -21 25 -42 25 -47 0 -5 15 -29 33 -53 18 -24 40 -55 49 -69 53
-82 252 -257 414 -363 16 -10 47 -31 69 -46 22 -15 60 -37 85 -49 25 -11 72
-37 105 -56 33 -19 80 -44 105 -55 25 -12 72 -34 105 -50 108 -52 221 -100
233 -100 7 0 34 -11 61 -25 27 -13 70 -29 97 -36 27 -7 67 -21 89 -32 22 -11
76 -30 120 -43 44 -12 109 -32 145 -44 36 -11 106 -34 155 -49 50 -16 109 -32
133 -35 23 -4 83 -20 133 -36 49 -17 101 -30 114 -30 14 0 66 -13 115 -29 49
-17 122 -34 162 -40 40 -6 109 -21 153 -34 44 -13 109 -27 145 -31 36 -4 103
-18 150 -31 47 -14 133 -31 192 -40 59 -8 142 -23 185 -34 43 -10 123 -24 178
-30 55 -7 136 -21 180 -31 44 -11 141 -27 215 -35 74 -8 180 -24 234 -35 55
-11 151 -25 214 -30 63 -6 178 -21 256 -34 77 -14 209 -30 292 -36 82 -6 202
-19 265 -30 62 -11 209 -27 324 -35 116 -8 274 -24 352 -35 77 -11 230 -25
340 -30 109 -6 299 -22 423 -35 124 -13 308 -27 410 -30 157 -5 580 -32 785
-50 90 -8 995 -40 1110 -39 129 0 223 19 280 55 25 16 49 29 54 29 4 0 39 31
78 70 58 58 76 84 111 164 41 92 42 97 42 206 0 109 -1 115 -40 203 -73 163
-189 266 -347 306 -110 28 -249 39 -688 51 -371 11 -485 17 -820 44 -99 8
-290 20 -425 26 -135 6 -324 19 -420 30 -222 24 -277 28 -480 40 -91 5 -230
18 -310 29 -80 12 -230 28 -335 36 -104 8 -239 24 -300 34 -60 11 -180 25
-265 31 -85 6 -216 21 -290 35 -74 13 -190 28 -256 34 -67 6 -166 20 -220 31
-55 12 -155 27 -224 35 -69 8 -164 23 -210 34 -47 11 -128 25 -180 31 -52 6
-140 22 -195 35 -55 14 -138 29 -185 35 -47 5 -116 19 -155 30 -38 11 -113 27
-166 35 -52 8 -124 23 -160 34 -35 11 -95 25 -134 31 -38 6 -104 22 -145 35
-41 14 -105 29 -141 35 -37 5 -95 21 -130 34 -36 13 -87 27 -114 31 -28 4 -72
16 -99 27 -27 10 -88 30 -135 43 -94 25 -188 56 -266 87 -27 11 -81 30 -120
43 -38 12 -86 32 -105 43 -19 12 -42 22 -50 22 -13 0 -121 52 -273 133 -82 43
-75 95 20 153 72 43 202 107 243 119 14 4 50 20 80 35 30 16 71 31 90 35 19 4
55 18 80 30 25 12 71 28 103 35 32 6 83 23 113 36 30 13 62 24 71 24 9 0 61
15 117 34 56 18 130 40 166 49 36 8 84 22 107 31 24 9 75 21 115 27 40 6 96
20 123 30 28 11 91 26 142 34 50 9 111 22 135 31 23 8 97 24 163 35 66 11 147
28 180 39 33 10 103 23 155 29 52 7 138 23 190 36 52 13 138 28 190 34 52 6
145 22 205 35 61 13 148 27 195 31 47 4 137 17 200 30 63 13 171 29 240 35 69
6 170 20 225 30 135 25 159 28 315 40 74 6 187 19 250 30 63 11 205 27 315 35
110 8 261 23 335 34 74 11 223 25 330 31 107 6 299 22 425 35 127 14 345 29
485 35 140 6 347 19 460 30 243 23 1008 49 1039 34 12 -5 331 -317 709 -694
532 -532 704 -697 762 -735 41 -26 86 -56 100 -65 37 -24 216 -110 229 -110 6
0 40 -12 74 -26 90 -38 364 -84 501 -84 106 0 297 25 416 55 82 21 229 73 264
94 17 10 42 22 56 26 14 4 44 21 67 36 23 16 45 29 50 29 4 0 42 25 83 55 41
30 91 66 110 79 19 13 329 319 688 680 436 439 661 658 680 663 45 11 802 -16
1022 -37 113 -11 320 -24 460 -30 140 -6 318 -17 395 -26 261 -28 320 -33 515
-44 107 -6 252 -20 322 -30 70 -11 221 -26 335 -35 114 -8 260 -24 323 -35 63
-11 176 -24 250 -30 156 -11 180 -14 315 -40 55 -11 156 -24 225 -30 69 -6
179 -22 245 -35 66 -13 167 -28 225 -34 58 -6 143 -20 189 -31 46 -11 129 -25
185 -31 56 -6 142 -21 191 -34 50 -13 133 -29 185 -35 52 -6 126 -21 165 -32
38 -11 112 -27 165 -34 52 -8 122 -23 156 -34 34 -10 101 -25 150 -34 49 -8
116 -24 148 -36 33 -11 89 -25 125 -31 36 -5 105 -23 152 -40 48 -16 98 -29
112 -29 15 0 57 -12 94 -26 38 -14 98 -32 136 -39 37 -8 85 -24 106 -35 22
-11 61 -24 86 -30 26 -6 71 -21 99 -35 28 -13 65 -27 81 -31 75 -17 431 -183
481 -224 17 -15 18 -61 2 -81 -21 -25 -267 -159 -293 -159 -6 0 -42 -15 -81
-34 -39 -18 -85 -37 -103 -41 -18 -4 -60 -19 -94 -35 -34 -15 -79 -30 -99 -34
-21 -4 -61 -17 -91 -31 -30 -13 -78 -28 -108 -33 -30 -6 -75 -20 -101 -31 -26
-11 -83 -27 -126 -35 -42 -8 -98 -23 -123 -34 -24 -11 -78 -25 -119 -32 -40
-7 -104 -23 -140 -35 -37 -12 -91 -26 -121 -29 -30 -4 -94 -19 -144 -33 -49
-13 -132 -31 -183 -39 -52 -7 -123 -23 -159 -34 -35 -11 -106 -25 -156 -31
-51 -6 -135 -21 -187 -34 -52 -13 -138 -29 -190 -34 -52 -6 -135 -20 -185 -31
-49 -11 -148 -27 -219 -35 -70 -9 -167 -24 -215 -35 -47 -10 -142 -24 -211
-30 -69 -6 -186 -22 -260 -35 -74 -13 -169 -27 -210 -30 -143 -11 -265 -26
-338 -41 -40 -8 -163 -21 -275 -29 -111 -7 -292 -25 -402 -39 -110 -13 -285
-29 -390 -35 -104 -6 -269 -20 -365 -31 -96 -11 -287 -25 -425 -30 -137 -6
-349 -20 -470 -31 -121 -10 -364 -24 -540 -30 -587 -19 -830 -36 -925 -62
-156 -43 -279 -154 -348 -313 -34 -76 -34 -77 -30 -208 4 -127 5 -133 41 -206
47 -96 130 -187 218 -239 107 -64 201 -76 494 -62 127 6 379 16 560 21 182 6
440 19 575 30 135 11 360 25 500 30 140 6 334 19 430 30 237 26 276 29 494 40
104 6 253 19 330 30 78 11 234 27 348 35 113 8 256 23 317 34 60 11 179 25
263 31 84 6 217 22 294 36 78 13 193 28 256 34 63 5 159 19 214 31 54 11 158
26 229 34 72 7 168 22 215 34 47 11 128 25 180 31 52 6 142 22 200 35 58 13
146 29 195 35 50 6 126 22 170 35 44 13 123 30 175 39 52 8 129 24 170 35 41
10 109 26 150 34 41 8 107 24 145 35 70 20 128 35 280 73 44 11 121 33 170 49
50 16 106 32 125 36 19 3 61 17 92 30 32 13 81 29 110 35 29 6 73 22 98 34 25
12 67 27 94 34 27 7 70 23 97 36 27 14 54 25 61 25 13 0 130 51 243 106 39 19
75 34 81 34 6 0 29 12 50 26 21 15 52 31 69 37 29 10 88 44 180 102 191 121
284 194 401 313 52 52 94 98 94 103 0 4 11 21 25 37 38 45 106 171 126 232 10
30 25 75 35 100 12 34 16 78 17 185 0 120 -3 149 -22 200 -12 33 -28 78 -35
100 -15 48 -87 176 -121 217 -14 16 -25 33 -25 38 0 12 -207 218 -245 243 -18
12 -61 42 -95 67 -107 77 -202 135 -335 205 -33 17 -69 36 -80 42 -58 32 -192
93 -204 93 -8 0 -34 12 -58 26 -24 14 -67 32 -96 41 -29 8 -61 21 -73 28 -12
8 -48 21 -80 31 -32 9 -81 27 -109 39 -27 13 -77 28 -110 35 -33 7 -77 21 -97
31 -21 11 -69 26 -108 34 -39 8 -87 24 -108 34 -21 11 -66 24 -100 31 -34 6
-90 21 -124 34 -35 13 -94 29 -133 35 -38 6 -101 21 -140 34 -38 13 -97 27
-130 31 -33 4 -98 19 -145 32 -47 14 -119 29 -160 35 -41 5 -113 21 -160 34
-47 13 -125 29 -174 35 -49 6 -135 22 -190 35 -56 13 -132 26 -171 30 -38 4
-117 17 -175 30 -58 13 -157 29 -220 35 -63 6 -169 22 -235 36 -66 13 -174 28
-240 34 -66 5 -160 17 -210 25 -154 28 -197 33 -300 40 -55 4 -176 18 -270 31
-93 13 -237 29 -320 34 -82 6 -217 19 -300 29 -211 27 -237 29 -445 41 -102 6
-277 20 -390 31 -113 11 -340 26 -505 34 -462 22 -505 29 -505 78 0 18 113
138 479 505 414 416 484 482 516 488 43 8 434 -12 620 -31 71 -8 216 -19 320
-25 328 -18 497 -31 600 -45 55 -8 174 -19 265 -25 262 -17 417 -30 525 -46
55 -8 183 -21 285 -29 102 -8 241 -23 310 -34 69 -11 195 -25 280 -31 137 -10
334 -35 351 -46 4 -2 80 -11 170 -19 90 -9 209 -25 266 -36 56 -11 166 -26
245 -33 79 -8 202 -25 273 -39 72 -14 172 -30 223 -36 51 -6 129 -20 174 -31
46 -11 116 -22 158 -26 41 -3 136 -19 210 -34 74 -16 162 -31 195 -35 33 -4
103 -18 155 -31 52 -14 145 -31 206 -39 61 -8 130 -22 154 -30 23 -8 94 -24
158 -34 65 -11 142 -29 173 -39 30 -11 84 -23 120 -27 35 -4 95 -18 134 -31
38 -13 99 -29 135 -35 36 -5 101 -21 145 -35 44 -13 106 -28 137 -34 32 -5 97
-23 146 -39 49 -17 99 -31 110 -31 11 0 56 -13 99 -29 43 -16 98 -32 123 -36
24 -4 71 -18 105 -30 33 -13 87 -28 120 -35 33 -7 83 -23 111 -35 29 -13 69
-27 90 -31 22 -3 68 -19 104 -34 36 -15 83 -30 104 -34 22 -4 60 -18 86 -31
25 -13 65 -28 90 -35 25 -7 65 -22 90 -35 25 -13 66 -28 90 -35 25 -6 59 -20
75 -30 17 -10 48 -23 70 -30 22 -6 74 -27 115 -47 41 -19 98 -45 125 -58 136
-63 393 -191 415 -206 14 -9 69 -43 123 -75 54 -33 116 -70 136 -84 21 -14 53
-35 72 -47 115 -75 291 -216 407 -327 67 -63 217 -236 258 -296 71 -105 167
-292 179 -352 4 -18 19 -69 33 -113 25 -75 26 -91 26 -270 0 -171 -2 -196 -22
-252 -12 -35 -27 -87 -33 -115 -7 -29 -25 -77 -40 -107 -16 -30 -29 -59 -29
-65 0 -11 -21 -47 -106 -181 -82 -129 -264 -320 -459 -482 -73 -61 -92 -75
-179 -133 -30 -19 -87 -57 -128 -85 -42 -27 -91 -59 -109 -70 -76 -45 -147
-85 -199 -112 -30 -16 -68 -37 -85 -46 -16 -9 -48 -24 -70 -35 -22 -10 -53
-26 -70 -35 -38 -20 -158 -75 -250 -115 -38 -17 -104 -46 -146 -65 -42 -19
-92 -38 -110 -42 -18 -4 -58 -20 -89 -35 -30 -15 -71 -31 -90 -35 -19 -4 -55
-18 -80 -31 -25 -13 -66 -28 -92 -34 -26 -5 -71 -21 -100 -34 -29 -13 -71 -28
-93 -32 -22 -4 -65 -18 -95 -31 -30 -13 -85 -31 -123 -39 -37 -7 -84 -22 -105
-33 -20 -10 -57 -22 -82 -26 -25 -4 -79 -20 -121 -35 -42 -16 -98 -32 -125
-35 -27 -4 -83 -20 -124 -35 -41 -15 -98 -30 -126 -34 -28 -3 -83 -17 -122
-31 -39 -13 -103 -30 -144 -36 -40 -6 -95 -20 -123 -30 -27 -11 -88 -26 -134
-34 -46 -8 -112 -24 -146 -34 -35 -11 -101 -25 -147 -31 -45 -6 -121 -22 -168
-35 -47 -13 -122 -29 -168 -34 -45 -6 -124 -22 -175 -35 -50 -14 -121 -28
-157 -31 -36 -4 -121 -19 -190 -35 -69 -15 -159 -31 -200 -35 -41 -3 -120 -17
-175 -30 -55 -13 -151 -29 -214 -35 -63 -6 -152 -20 -198 -30 -46 -11 -145
-27 -221 -36 -75 -9 -180 -24 -232 -35 -52 -11 -153 -24 -225 -30 -71 -5 -195
-21 -275 -34 -80 -13 -208 -29 -285 -35 -77 -6 -198 -20 -270 -31 -71 -11
-217 -27 -324 -35 -107 -8 -258 -24 -335 -35 -78 -11 -215 -24 -306 -29 -91
-6 -226 -17 -300 -25 -272 -30 -329 -34 -560 -45 -129 -6 -300 -17 -380 -26
-253 -26 -349 -33 -625 -44 -148 -6 -333 -15 -410 -20 -459 -32 -649 -40
-1085 -50 -267 -6 -622 -18 -790 -26 -573 -27 -1496 -36 -2885 -30 -956 4
-1434 10 -1670 21 -181 8 -483 19 -670 25 -724 21 -969 32 -1225 51 -146 10
-409 24 -585 29 -311 10 -377 14 -670 44 -77 8 -207 18 -290 21 -216 9 -405
23 -605 45 -96 10 -245 24 -330 30 -85 6 -216 20 -290 31 -74 11 -216 24 -315
30 -99 6 -256 21 -350 35 -93 13 -230 29 -305 34 -74 6 -186 19 -248 30 -62
11 -178 27 -256 35 -79 9 -190 24 -247 35 -57 11 -158 25 -224 31 -66 6 -163
20 -215 31 -52 11 -162 28 -245 38 -82 10 -184 28 -225 38 -41 11 -111 23
-155 27 -44 4 -136 19 -205 35 -69 15 -154 31 -190 35 -36 3 -107 17 -157 31
-51 13 -130 29 -175 35 -46 5 -121 21 -168 34 -47 13 -116 29 -155 35 -38 6
-99 19 -135 30 -36 10 -108 26 -160 34 -52 9 -117 24 -145 35 -27 10 -83 24
-123 30 -41 6 -105 23 -144 36 -39 14 -94 28 -122 31 -28 4 -85 19 -126 34
-41 15 -97 31 -124 35 -27 3 -83 19 -125 35 -42 15 -96 31 -120 35 -24 4 -66
17 -95 30 -28 12 -71 26 -96 30 -25 4 -72 19 -105 32 -33 14 -86 32 -118 39
-32 8 -75 23 -96 34 -22 11 -61 24 -88 30 -26 6 -68 21 -93 34 -25 13 -61 27
-80 31 -19 4 -60 20 -90 35 -31 15 -71 31 -89 35 -18 4 -68 23 -110 42 -42 19
-107 48 -146 65 -38 17 -104 46 -145 65 -70 32 -88 41 -157 77 -16 8 -48 25
-73 37 -129 63 -277 148 -407 234 -41 28 -99 66 -128 85 -184 121 -358 276
-514 455 -47 55 -104 127 -125 160 -87 138 -106 170 -106 183 0 8 -13 38 -29
66 -16 28 -32 68 -35 89 -4 21 -19 72 -33 115 -25 72 -27 89 -27 267 0 187 0
192 32 289 18 54 32 105 32 112 0 8 16 45 35 83 19 37 35 72 35 76 0 9 45 83
103 170 51 75 177 222 254 296 84 81 260 226 339 281 38 26 83 57 99 68 94 64
151 100 161 100 6 0 17 7 24 15 7 8 40 28 74 45 33 17 93 49 131 70 68 37 230
118 330 165 28 13 84 39 125 58 41 20 93 41 115 47 22 7 54 20 70 30 17 10 50
24 75 30 24 7 65 22 90 35 25 12 72 30 104 39 32 10 68 24 80 31 12 8 50 22
86 31 36 9 82 25 102 35 21 11 61 24 90 30 29 7 76 22 105 34 28 13 78 28 110
35 32 6 85 22 118 34 33 13 80 27 105 31 25 4 80 20 123 36 43 16 88 29 99 29
11 0 61 14 110 31 49 16 114 34 146 39 31 6 93 21 137 34 44 14 114 30 157 35
42 6 99 19 126 30 28 11 81 25 119 32 37 6 103 22 145 35 42 13 116 28 165 34
48 6 129 21 178 35 50 13 117 27 150 30 33 4 110 20 170 35 61 15 137 31 170
35 33 4 121 19 195 35 74 15 169 31 210 34 42 4 112 15 158 26 45 11 123 25
174 31 51 6 152 22 223 36 72 14 194 31 272 39 79 7 191 23 250 34 60 11 176
27 258 35 83 7 182 21 222 29 40 9 125 20 190 26 247 21 351 32 428 46 44 8
166 21 270 29 105 8 257 24 338 35 82 11 235 25 340 30 173 10 270 19 532 51
44 5 193 14 332 19 138 5 350 19 471 30 290 27 459 38 558 37 l81 -2 482 -483z"/>
<path d="M16785 30889 c-71 -4 -191 -14 -265 -23 -74 -8 -218 -22 -320 -31
-102 -8 -246 -26 -320 -39 -74 -13 -166 -27 -205 -30 -38 -4 -110 -18 -160
-31 -49 -13 -133 -29 -186 -34 -53 -6 -125 -20 -160 -31 -35 -11 -104 -27
-152 -36 -49 -8 -115 -23 -146 -34 -32 -10 -93 -26 -135 -35 -42 -9 -97 -25
-122 -35 -25 -11 -75 -25 -111 -30 -36 -6 -91 -21 -122 -34 -31 -13 -80 -29
-109 -35 -29 -6 -70 -20 -90 -30 -21 -11 -67 -27 -102 -36 -35 -9 -80 -25 -99
-35 -20 -9 -61 -23 -91 -29 -30 -6 -75 -22 -100 -35 -25 -13 -61 -27 -80 -31
-19 -4 -57 -19 -84 -32 -27 -14 -71 -32 -98 -40 -27 -8 -70 -25 -95 -39 -25
-13 -52 -24 -59 -24 -8 0 -43 -16 -80 -35 -36 -19 -72 -35 -81 -35 -8 0 -40
-13 -71 -30 -31 -16 -97 -48 -147 -70 -49 -23 -101 -48 -115 -56 -14 -7 -41
-20 -60 -29 -19 -8 -48 -23 -65 -32 -16 -9 -86 -45 -155 -81 -69 -35 -154 -81
-190 -102 -36 -22 -81 -47 -100 -57 -19 -9 -54 -30 -77 -45 -23 -16 -45 -28
-48 -28 -4 0 -35 -17 -68 -37 -55 -32 -114 -70 -312 -198 -85 -55 -226 -149
-255 -170 -101 -74 -156 -113 -184 -130 -18 -11 -46 -30 -62 -43 -42 -34 -202
-157 -252 -195 -512 -387 -1278 -1150 -1697 -1691 -17 -21 -41 -53 -55 -71
-14 -18 -45 -58 -70 -90 -25 -32 -54 -70 -65 -85 -42 -57 -111 -155 -145 -203
-19 -28 -44 -62 -55 -77 -24 -33 -124 -182 -176 -265 -21 -33 -48 -73 -59 -90
-54 -79 -100 -153 -100 -160 0 -5 -11 -22 -24 -39 -12 -17 -33 -51 -45 -76
-12 -25 -39 -74 -61 -110 -21 -36 -52 -90 -69 -120 -17 -30 -37 -66 -45 -80
-8 -14 -21 -38 -29 -55 -15 -29 -138 -270 -170 -330 -8 -16 -31 -64 -50 -105
-19 -41 -51 -110 -71 -152 -20 -42 -36 -80 -36 -85 0 -4 -13 -35 -30 -68 -29
-59 -61 -134 -105 -250 -12 -33 -33 -85 -45 -115 -12 -30 -31 -77 -42 -105
-11 -27 -27 -70 -35 -95 -8 -25 -23 -67 -35 -95 -11 -27 -29 -83 -40 -124 -11
-41 -27 -90 -37 -110 -10 -20 -23 -59 -29 -87 -6 -28 -21 -75 -32 -104 -12
-29 -28 -85 -36 -124 -8 -39 -25 -98 -38 -131 -13 -33 -27 -84 -31 -114 -4
-30 -18 -85 -30 -122 -13 -38 -29 -103 -35 -146 -6 -43 -22 -113 -35 -155 -14
-42 -29 -116 -35 -165 -6 -48 -20 -123 -31 -166 -11 -43 -26 -131 -34 -195 -8
-64 -23 -164 -34 -222 -10 -58 -22 -141 -26 -185 -14 -185 -27 -320 -45 -485
-36 -340 -34 -1214 4 -1515 8 -66 22 -208 31 -315 8 -107 26 -258 39 -335 14
-77 30 -182 36 -234 6 -51 19 -125 30 -165 11 -39 24 -114 31 -166 6 -52 22
-129 35 -170 13 -42 28 -108 34 -148 5 -40 19 -98 30 -130 11 -31 27 -91 35
-133 7 -41 23 -100 35 -129 11 -29 27 -86 35 -126 8 -40 20 -86 29 -101 8 -16
24 -66 35 -111 11 -44 29 -98 39 -119 11 -21 25 -62 31 -91 6 -29 19 -69 30
-90 10 -20 26 -64 34 -98 9 -33 27 -82 41 -109 14 -26 26 -57 26 -68 0 -11 13
-45 29 -76 16 -31 32 -72 36 -91 4 -19 20 -60 35 -90 15 -30 31 -66 34 -80 4
-14 23 -59 43 -100 19 -41 45 -97 58 -125 72 -157 97 -210 144 -305 28 -58 57
-116 65 -130 8 -14 23 -43 34 -65 33 -69 133 -252 185 -342 21 -35 52 -89 70
-120 42 -73 104 -172 139 -227 15 -22 42 -63 59 -91 17 -27 47 -75 67 -106 21
-30 47 -71 59 -90 41 -64 88 -131 116 -164 15 -18 27 -35 27 -39 0 -3 15 -25
33 -49 17 -24 52 -71 77 -106 25 -35 81 -109 125 -164 44 -55 91 -115 105
-133 77 -101 152 -192 225 -275 22 -25 53 -61 69 -80 141 -169 462 -502 696
-724 116 -110 543 -485 569 -499 9 -5 41 -31 71 -57 30 -25 96 -77 145 -115
50 -37 95 -73 102 -78 7 -6 35 -27 64 -46 28 -19 73 -51 100 -70 183 -132 235
-168 324 -226 55 -36 114 -73 130 -81 17 -9 41 -24 55 -35 49 -38 145 -98 156
-98 6 0 28 -13 50 -30 21 -16 44 -30 50 -30 6 0 29 -13 51 -29 21 -15 59 -38
84 -50 24 -12 73 -39 109 -61 36 -22 88 -51 115 -64 28 -14 61 -32 75 -40 14
-8 45 -24 70 -35 25 -11 56 -27 70 -35 14 -8 45 -24 70 -35 25 -11 56 -26 70
-34 52 -30 171 -87 182 -87 6 0 45 -16 87 -36 42 -21 108 -52 146 -71 39 -18
76 -33 83 -33 7 0 31 -9 54 -21 22 -11 70 -31 107 -44 75 -26 173 -65 246 -99
28 -13 74 -29 103 -35 29 -6 67 -19 85 -28 18 -9 68 -26 112 -39 44 -12 103
-30 130 -41 92 -37 240 -82 300 -92 33 -5 81 -19 107 -30 26 -12 73 -26 105
-32 32 -5 92 -21 133 -34 41 -13 109 -29 150 -35 41 -6 109 -22 150 -35 42
-13 109 -26 150 -30 41 -4 121 -18 177 -31 57 -14 151 -31 211 -39 59 -8 161
-23 227 -34 66 -11 206 -28 310 -36 105 -8 249 -23 320 -31 276 -34 1243 -34
1511 0 66 8 210 22 320 31 109 9 260 27 334 40 74 13 182 28 239 34 57 6 138
20 180 31 42 10 121 26 176 34 55 8 126 24 157 35 31 11 92 25 135 31 43 6
112 22 153 35 41 14 105 29 142 35 37 6 88 19 115 31 26 11 77 26 113 34 36 8
95 25 133 39 37 14 77 26 90 26 12 0 49 12 82 26 33 14 92 34 132 44 40 11 89
28 110 38 21 11 61 25 88 31 28 7 60 19 73 27 13 9 53 26 90 38 37 13 91 33
120 45 124 50 160 64 207 81 28 10 73 29 100 43 80 41 201 97 211 97 9 0 184
88 464 233 74 38 158 81 185 95 28 13 57 30 65 37 15 13 46 32 170 100 36 19
92 53 125 75 33 21 80 50 105 65 25 14 56 33 70 44 14 10 50 34 80 53 99 64
194 127 245 163 28 20 68 48 90 63 39 27 201 144 220 160 6 4 36 28 69 52 107
82 124 95 186 145 172 139 344 285 425 358 275 251 588 563 766 762 25 28 60
66 79 85 31 32 218 256 336 402 88 109 266 344 324 429 19 28 44 63 56 78 30
38 174 250 174 256 0 6 61 99 88 135 11 14 29 41 40 60 10 19 44 76 74 125
100 165 138 231 138 239 0 4 10 22 23 39 12 17 32 49 43 72 24 44 82 153 107
200 9 17 23 44 30 60 8 17 39 77 69 135 31 58 59 117 63 130 4 14 15 36 25 50
10 14 21 36 24 50 7 24 37 89 111 243 19 39 35 78 35 85 0 7 13 38 29 70 16
31 32 73 36 92 4 19 20 59 35 90 15 30 31 71 35 90 4 19 18 53 30 75 13 22 27
58 30 80 4 22 20 69 35 105 16 36 32 83 36 105 3 22 15 57 26 78 10 21 28 74
39 117 10 43 28 99 38 124 11 24 23 66 27 93 4 26 19 82 34 124 16 42 32 98
35 125 4 27 20 90 35 139 15 50 31 116 34 147 4 32 18 92 32 134 13 43 29 118
34 168 6 50 19 123 30 162 11 40 24 114 31 165 6 52 17 132 25 179 27 165 43
286 54 430 6 80 20 226 32 325 19 162 21 235 21 725 0 442 -3 572 -17 690 -20
174 -32 301 -46 475 -6 72 -19 177 -30 233 -10 56 -24 148 -30 204 -6 57 -22
149 -35 205 -13 56 -29 141 -35 190 -6 48 -22 122 -34 163 -13 41 -29 110 -36
153 -6 43 -22 108 -35 146 -12 37 -26 92 -30 122 -4 30 -18 79 -30 109 -13 30
-28 83 -34 116 -6 33 -25 99 -41 145 -16 46 -30 93 -30 104 0 11 -12 44 -25
74 -14 30 -30 75 -36 100 -5 25 -23 80 -38 121 -16 41 -35 95 -44 120 -8 25
-24 69 -36 98 -11 28 -31 76 -42 105 -12 28 -32 79 -44 112 -44 116 -76 191
-105 250 -17 33 -30 64 -30 69 0 5 -16 44 -36 85 -20 42 -52 110 -71 151 -19
41 -41 87 -49 103 -8 15 -21 42 -30 60 -9 17 -25 48 -35 67 -11 19 -46 89 -80
155 -33 66 -78 149 -100 185 -21 36 -48 85 -60 110 -12 25 -33 59 -45 76 -13
17 -24 36 -24 41 0 6 -16 34 -35 62 -19 28 -35 53 -35 55 0 6 -65 110 -100
161 -11 17 -38 57 -59 90 -80 125 -199 303 -246 365 -11 15 -37 51 -58 81 -49
70 -66 92 -207 274 -14 17 -38 50 -55 71 -100 131 -437 523 -546 635 -35 36
-113 116 -172 177 -249 255 -598 574 -850 777 -48 39 -118 95 -155 125 -37 30
-96 75 -131 100 -34 25 -81 60 -103 77 -22 18 -78 59 -125 90 -47 32 -98 67
-113 78 -34 25 -288 194 -327 217 -15 10 -55 35 -88 57 -33 22 -80 52 -105 66
-25 14 -74 44 -110 65 -66 39 -131 77 -230 132 -61 34 -302 160 -365 190 -22
11 -47 24 -55 29 -35 21 -217 109 -226 109 -5 0 -42 16 -81 35 -40 19 -106 51
-145 70 -40 19 -80 35 -89 35 -9 0 -38 12 -65 26 -27 15 -70 33 -97 41 -26 7
-62 22 -80 33 -17 10 -54 24 -82 31 -27 6 -66 20 -85 31 -19 11 -66 29 -104
40 -37 10 -84 27 -105 37 -20 10 -54 22 -76 25 -22 4 -69 20 -105 36 -36 15
-85 31 -110 35 -25 4 -70 18 -100 30 -30 13 -80 28 -110 33 -30 6 -85 22 -121
36 -37 14 -91 28 -120 32 -30 4 -87 17 -127 30 -40 13 -112 31 -160 39 -48 8
-115 23 -148 34 -34 11 -99 25 -145 31 -46 6 -127 22 -179 35 -52 13 -131 27
-175 31 -44 3 -141 17 -215 30 -74 13 -218 31 -320 39 -102 9 -243 22 -315 30
-71 9 -204 20 -295 25 -189 11 -852 11 -1045 -1z m1280 -1088 c99 -12 254 -28
345 -36 91 -8 221 -26 290 -39 69 -14 154 -27 190 -31 36 -3 108 -17 160 -30
52 -13 129 -28 170 -34 41 -6 111 -21 155 -34 44 -14 105 -28 135 -32 30 -4
83 -18 118 -31 35 -13 94 -29 130 -35 37 -6 93 -22 124 -34 32 -13 84 -29 115
-35 32 -7 72 -19 88 -28 17 -8 64 -26 105 -38 117 -35 230 -74 290 -100 30
-13 80 -32 110 -42 64 -22 135 -51 240 -98 42 -19 81 -34 88 -34 7 0 33 -11
59 -24 27 -14 82 -40 123 -59 95 -44 508 -245 535 -260 44 -25 143 -78 192
-102 29 -15 55 -31 59 -36 3 -6 27 -19 51 -30 25 -11 59 -31 75 -44 16 -14 35
-25 42 -25 7 0 38 -18 69 -40 30 -22 60 -40 65 -40 5 0 17 -9 28 -21 10 -12
35 -30 54 -41 19 -10 58 -36 86 -56 176 -127 250 -180 282 -202 45 -31 148
-107 171 -127 25 -22 105 -84 157 -123 54 -41 128 -101 164 -134 14 -12 92
-81 175 -152 216 -186 464 -424 626 -599 102 -111 456 -518 479 -551 14 -21
69 -92 137 -178 18 -23 63 -83 100 -135 38 -51 80 -110 95 -130 31 -42 186
-271 235 -348 18 -29 50 -79 70 -110 84 -133 122 -196 152 -259 11 -22 29 -51
39 -65 11 -13 29 -44 41 -69 12 -25 40 -79 62 -120 23 -41 50 -93 60 -115 11
-22 24 -47 29 -55 5 -8 32 -62 60 -120 29 -58 67 -136 86 -175 19 -38 34 -74
34 -80 0 -5 13 -37 29 -70 61 -124 99 -214 106 -246 4 -19 16 -50 27 -69 11
-19 27 -57 35 -85 9 -27 25 -70 38 -95 12 -25 26 -63 29 -85 4 -22 21 -70 37
-107 16 -36 29 -74 29 -83 0 -9 14 -50 30 -92 17 -41 37 -105 44 -143 8 -37
21 -81 29 -97 9 -16 22 -63 31 -106 9 -42 25 -99 36 -127 11 -28 25 -83 31
-123 6 -39 21 -106 34 -147 12 -41 28 -109 34 -150 7 -41 22 -120 35 -175 13
-55 27 -129 31 -165 3 -36 17 -122 31 -192 13 -69 31 -204 39 -300 8 -95 22
-229 30 -298 43 -362 46 -1133 6 -1480 -11 -96 -27 -256 -36 -355 -8 -99 -24
-221 -35 -272 -11 -51 -26 -146 -35 -212 -8 -65 -22 -140 -30 -167 -8 -27 -21
-94 -30 -149 -9 -55 -27 -134 -40 -175 -12 -41 -26 -102 -30 -135 -5 -33 -20
-96 -35 -140 -15 -44 -31 -100 -35 -125 -4 -24 -18 -71 -30 -105 -13 -33 -28
-87 -35 -120 -7 -33 -20 -76 -30 -95 -10 -19 -27 -71 -39 -115 -12 -43 -26
-84 -31 -90 -5 -6 -17 -42 -28 -81 -11 -39 -29 -88 -40 -110 -11 -21 -25 -59
-32 -84 -7 -25 -22 -65 -35 -90 -13 -25 -28 -66 -35 -90 -6 -25 -23 -64 -36
-87 -13 -23 -24 -48 -24 -55 0 -7 -16 -46 -35 -85 -74 -154 -104 -219 -111
-243 -3 -14 -15 -37 -26 -52 -10 -15 -25 -46 -33 -69 -9 -24 -22 -50 -29 -59
-8 -8 -26 -40 -40 -70 -13 -30 -32 -66 -40 -80 -9 -14 -22 -41 -30 -60 -9 -19
-36 -69 -61 -110 -25 -41 -53 -91 -61 -110 -9 -19 -22 -42 -30 -51 -8 -9 -27
-39 -42 -67 -26 -48 -80 -137 -142 -232 -16 -25 -41 -65 -55 -90 -14 -25 -37
-61 -50 -80 -14 -19 -39 -56 -57 -82 -18 -26 -62 -88 -98 -138 -36 -49 -81
-113 -100 -141 -19 -28 -51 -70 -70 -94 -59 -72 -63 -77 -130 -165 -162 -213
-544 -637 -766 -850 -262 -254 -536 -496 -694 -614 -52 -39 -106 -80 -119 -91
-72 -60 -91 -75 -148 -116 -33 -24 -98 -71 -144 -104 -45 -33 -97 -69 -115
-80 -19 -11 -67 -44 -109 -72 -42 -29 -78 -53 -81 -53 -4 0 -75 -46 -139 -91
-16 -11 -52 -34 -80 -50 -27 -16 -57 -33 -65 -38 -17 -11 -91 -54 -157 -91
-201 -115 -541 -290 -723 -372 -36 -16 -91 -43 -122 -59 -31 -16 -63 -29 -70
-29 -7 0 -46 -16 -85 -35 -40 -19 -78 -35 -86 -35 -7 0 -36 -11 -63 -25 -27
-14 -72 -32 -100 -39 -28 -8 -69 -23 -90 -34 -22 -11 -59 -25 -84 -31 -25 -7
-70 -23 -101 -36 -30 -13 -80 -30 -110 -36 -30 -6 -71 -20 -91 -30 -21 -11
-67 -26 -102 -34 -36 -8 -85 -24 -111 -35 -25 -11 -76 -25 -113 -31 -37 -6
-96 -22 -132 -36 -35 -13 -94 -28 -131 -33 -37 -5 -101 -21 -142 -34 -41 -13
-101 -27 -133 -31 -32 -4 -115 -20 -184 -35 -69 -16 -154 -31 -190 -35 -36 -3
-108 -15 -160 -25 -98 -20 -174 -29 -440 -55 -85 -9 -220 -23 -300 -31 -213
-24 -1074 -23 -1285 0 -82 9 -217 23 -300 31 -259 25 -337 35 -435 55 -52 10
-124 22 -160 25 -36 4 -121 19 -190 35 -69 15 -147 31 -174 35 -26 4 -80 17
-120 30 -39 13 -107 28 -150 34 -44 6 -119 25 -166 41 -48 17 -97 30 -108 30
-12 0 -52 11 -89 25 -37 14 -97 32 -134 39 -37 8 -84 23 -105 34 -22 10 -61
24 -88 31 -27 7 -66 21 -87 32 -21 10 -62 24 -91 30 -29 6 -82 23 -118 39
-112 47 -172 72 -250 100 -102 38 -208 83 -250 108 -19 11 -46 23 -60 27 -45
13 -255 115 -495 240 -120 62 -145 76 -285 156 -41 23 -93 52 -115 64 -40 21
-54 30 -225 140 -52 34 -123 79 -157 101 -34 21 -85 55 -112 74 -27 19 -75 53
-106 75 -185 130 -310 223 -422 318 -24 20 -47 37 -51 37 -4 0 -18 10 -32 23
-14 12 -35 29 -46 37 -19 14 -57 46 -218 191 -28 26 -80 71 -116 100 -132 109
-603 590 -755 773 -22 26 -59 69 -83 94 -24 26 -55 63 -70 82 -14 19 -31 40
-36 45 -6 6 -38 46 -71 90 -32 44 -82 107 -110 140 -28 33 -58 71 -67 85 -9
14 -33 48 -53 75 -38 53 -71 100 -160 230 -88 129 -93 137 -137 205 -56 89
-99 156 -134 210 -16 25 -38 63 -50 85 -11 22 -37 68 -57 102 -87 148 -111
190 -124 218 -7 17 -22 46 -33 65 -24 44 -173 346 -210 425 -16 33 -44 94 -63
135 -20 41 -39 86 -43 100 -4 14 -20 49 -35 79 -16 30 -29 61 -29 70 0 9 -12
41 -26 71 -14 30 -33 78 -41 105 -8 28 -24 68 -35 89 -11 22 -29 71 -40 110
-11 39 -23 75 -28 81 -5 6 -18 46 -30 89 -11 43 -29 95 -39 115 -11 20 -24 61
-29 92 -6 30 -22 84 -36 121 -13 37 -28 88 -32 115 -4 26 -17 76 -30 110 -13
35 -29 96 -35 135 -6 40 -22 107 -34 148 -13 41 -29 111 -35 154 -7 44 -21
113 -31 154 -11 41 -27 126 -35 191 -8 64 -21 143 -29 176 -15 68 -26 157 -56
460 -11 116 -25 246 -30 290 -4 44 -11 247 -15 450 -7 407 4 706 36 980 10 94
24 227 29 296 6 70 22 185 35 255 14 71 28 158 32 194 3 36 17 108 29 160 13
52 29 131 35 175 7 44 22 114 35 155 13 41 28 108 34 147 6 40 20 96 32 124
11 29 27 84 35 123 8 39 23 92 34 117 10 25 26 77 34 116 8 39 23 88 34 109
11 22 25 63 31 92 6 29 20 70 30 91 11 21 25 60 32 87 6 27 24 78 39 114 58
137 74 177 97 245 13 38 30 79 37 90 7 11 19 38 26 60 7 22 25 63 41 91 16 28
29 57 29 64 0 14 44 109 128 275 25 50 54 108 64 130 11 22 26 51 34 65 8 14
29 52 45 85 38 75 68 130 99 180 23 37 32 53 94 166 15 29 36 64 45 79 10 14
34 51 54 83 144 224 226 348 312 467 108 150 156 215 195 265 74 95 93 120
128 166 110 146 539 620 721 797 204 199 607 556 689 611 20 13 67 50 104 80
37 31 84 69 105 84 21 15 54 40 74 55 20 15 61 44 90 65 30 21 100 70 155 110
56 40 115 80 130 89 29 18 103 65 184 118 119 78 263 164 320 191 25 12 56 30
69 41 14 10 43 28 65 39 23 11 100 51 171 89 172 91 309 159 425 210 52 23
118 52 145 65 123 59 208 95 223 95 9 0 50 15 92 34 104 46 178 76 225 91 22
7 63 20 90 28 28 9 95 32 150 52 138 50 171 61 240 78 73 18 179 49 300 87 50
16 113 31 140 35 28 3 97 19 155 35 58 15 128 31 155 35 28 4 94 17 149 30 54
14 126 27 160 30 33 4 119 18 190 31 71 14 202 31 290 39 89 8 244 23 346 34
261 29 252 28 805 26 439 -2 522 -5 680 -24z"/>
<path d="M16375 26185 c-29 -17 -73 -28 -160 -40 -66 -9 -156 -23 -201 -30
-120 -21 -258 -33 -554 -50 -293 -17 -367 -26 -485 -60 -141 -41 -197 -54
-350 -80 -131 -22 -162 -32 -252 -75 -56 -27 -139 -59 -184 -70 -79 -20 -113
-36 -224 -100 -27 -17 -88 -41 -135 -56 -58 -18 -101 -39 -140 -69 -30 -24
-78 -55 -107 -69 -28 -14 -79 -49 -114 -78 -34 -29 -83 -69 -109 -90 -40 -31
-115 -122 -211 -257 -14 -20 -34 -61 -44 -91 -19 -58 -43 -110 -93 -200 -17
-30 -40 -93 -52 -139 -11 -46 -43 -127 -69 -180 -28 -55 -60 -141 -75 -201
-17 -63 -45 -137 -70 -185 -29 -53 -52 -117 -70 -190 -16 -64 -47 -153 -76
-215 -30 -64 -59 -147 -74 -212 -16 -68 -42 -139 -70 -195 -45 -90 -50 -106
-86 -251 -11 -46 -39 -120 -61 -164 -23 -46 -53 -131 -70 -197 -17 -64 -52
-163 -79 -221 -26 -58 -55 -130 -64 -161 -18 -65 -54 -105 -105 -118 -20 -5
-139 -12 -266 -15 -265 -6 -286 -10 -465 -91 -119 -54 -129 -60 -212 -146 -74
-76 -90 -100 -114 -162 -15 -39 -48 -113 -74 -163 -31 -58 -54 -120 -65 -170
-9 -43 -31 -129 -50 -189 -20 -69 -31 -122 -28 -139 10 -49 80 -182 109 -205
15 -11 63 -33 108 -47 71 -23 105 -26 286 -33 229 -8 254 -15 284 -78 30 -64
26 -94 -75 -465 -10 -36 -22 -126 -28 -199 -15 -182 -15 -4077 -1 -4186 9 -61
22 -100 62 -180 65 -129 93 -164 162 -196 66 -32 136 -92 136 -118 0 -18 27
-19 980 -19 953 0 980 1 980 19 0 27 64 81 143 120 75 37 87 51 145 166 78
156 75 138 81 560 l6 380 25 49 c14 28 38 59 53 70 l28 21 3232 3 c1778 1
3247 0 3265 -3 18 -3 51 -22 72 -41 65 -59 68 -82 73 -479 5 -383 6 -389 72
-546 46 -108 71 -139 150 -180 79 -41 133 -83 146 -115 l9 -24 974 0 974 0 12
30 c15 35 56 68 132 104 48 23 66 40 122 116 37 49 74 106 84 127 16 36 17
184 17 2263 l0 2225 -26 90 c-14 50 -43 137 -64 195 -40 113 -43 176 -10 226
35 54 55 58 270 65 177 6 209 10 281 33 98 31 127 53 160 117 13 27 41 75 61
106 l36 56 -33 71 c-40 86 -73 186 -95 286 -10 47 -33 103 -59 150 -23 41 -55
105 -70 141 -22 52 -46 85 -115 155 -84 86 -90 91 -217 146 -72 31 -150 62
-175 67 -24 6 -147 13 -274 17 -126 3 -251 10 -277 16 -61 13 -91 48 -118 136
-11 37 -40 106 -64 154 -28 55 -52 121 -66 185 -14 63 -40 135 -72 201 -30 63
-60 146 -77 215 -18 69 -45 146 -74 202 -28 57 -55 130 -71 199 -16 66 -43
139 -68 188 -22 44 -55 134 -74 203 -22 80 -50 155 -78 207 -27 51 -53 118
-67 173 -13 55 -40 125 -69 180 -26 50 -60 134 -75 190 -15 55 -41 127 -58
160 -58 115 -65 131 -90 215 -17 54 -41 106 -66 140 -22 30 -57 84 -79 120
-48 78 -192 213 -289 272 -38 23 -93 60 -123 83 -30 23 -84 52 -120 65 -36 12
-103 44 -150 71 -63 36 -115 56 -200 78 -63 16 -160 49 -215 74 -79 35 -127
49 -230 67 -178 30 -255 46 -355 75 -137 40 -247 54 -528 70 -296 17 -411 28
-557 50 -55 9 -155 24 -223 34 -90 13 -131 24 -152 40 l-29 21 -1038 0 -1038
-1 -40 -24z m1955 -1015 c293 -6 483 -16 686 -34 260 -24 491 -50 539 -61 11
-2 126 -13 255 -25 261 -23 323 -35 456 -85 51 -19 129 -44 175 -55 115 -30
146 -48 224 -135 89 -98 89 -99 123 -192 17 -44 50 -110 75 -146 25 -37 57
-101 71 -144 14 -42 46 -106 70 -142 24 -36 56 -102 72 -146 15 -44 50 -113
76 -154 27 -42 58 -105 69 -145 12 -39 45 -116 74 -171 29 -55 63 -136 75
-180 12 -44 43 -120 70 -170 27 -50 60 -132 75 -185 14 -52 47 -135 71 -183
33 -65 53 -123 74 -215 17 -77 44 -161 68 -212 69 -150 96 -337 60 -421 -33
-76 -92 -85 -703 -109 -143 -6 -388 -17 -545 -25 -281 -15 -368 -20 -790 -50
-450 -31 -2231 -53 -2930 -36 -250 6 -655 16 -900 22 -245 5 -505 14 -578 19
-401 28 -829 50 -1357 70 -596 23 -765 37 -812 67 -79 52 -71 236 21 450 19
44 44 130 56 189 23 112 49 189 95 283 14 29 37 97 51 150 14 57 44 135 73
192 27 52 62 138 76 190 15 52 48 135 75 184 27 50 56 119 65 155 22 86 38
123 82 189 20 30 49 93 65 140 16 47 44 111 62 141 48 78 70 125 95 200 12 36
41 98 66 139 24 41 54 104 66 140 26 81 78 161 127 195 20 14 69 38 107 54 39
17 102 44 141 61 84 36 188 55 424 76 154 14 510 56 595 70 60 11 557 37 825
44 399 11 1520 11 1990 1z m-5620 -4984 c47 -8 170 -33 274 -55 161 -34 204
-48 290 -90 56 -27 136 -59 179 -70 79 -21 131 -44 197 -86 19 -13 58 -30 85
-38 28 -8 77 -23 110 -33 33 -9 96 -34 140 -54 119 -55 131 -58 249 -79 72
-13 132 -31 180 -54 89 -43 207 -126 240 -169 13 -18 48 -91 77 -163 73 -177
73 -214 4 -351 l-50 -99 -115 -58 c-137 -69 -241 -92 -385 -85 -96 5 -122 15
-204 73 -25 18 -62 40 -82 49 -20 9 -60 37 -89 62 -29 25 -80 59 -114 76 -33
17 -85 49 -115 71 -88 65 -95 66 -396 66 -285 1 -390 -7 -545 -40 -267 -57
-307 -56 -420 12 -127 75 -131 86 -137 379 -7 302 6 454 46 535 45 91 101 131
246 178 123 40 201 45 335 23z m9823 -11 c37 -10 105 -36 150 -59 76 -38 84
-45 109 -96 36 -74 56 -175 69 -355 19 -264 -3 -465 -61 -537 -10 -14 -58 -45
-106 -69 -84 -43 -89 -44 -173 -42 -47 1 -151 14 -231 28 -302 53 -790 58
-887 8 -21 -11 -88 -45 -150 -77 -61 -31 -131 -75 -156 -96 -25 -22 -67 -49
-93 -61 -27 -11 -64 -32 -81 -45 -59 -45 -95 -54 -210 -54 -127 0 -195 14
-356 68 -137 47 -176 73 -217 145 -34 59 -38 110 -12 148 9 14 38 57 63 95 26
38 57 78 69 89 13 11 48 52 78 90 89 111 223 255 268 286 23 15 68 35 100 43
33 8 89 22 126 31 37 10 95 30 130 47 35 17 108 43 163 60 55 16 141 51 190
78 50 26 131 60 180 74 50 14 128 46 175 70 84 44 183 69 545 141 87 18 227
13 318 -10z"/>
<path d="M17240 4160 c-30 -4 -94 -26 -142 -48 -119 -55 -203 -140 -260 -261
-39 -82 -41 -91 -46 -202 l-4 -115 38 -90 c66 -154 142 -232 296 -301 80 -37
86 -38 198 -38 112 0 118 1 198 38 154 69 230 147 296 301 l38 90 -4 115 c-5
111 -6 120 -47 204 -32 69 -57 103 -110 156 -119 117 -288 174 -451 151z"/>
</g>
</svg>
