<?xml version="1.0" encoding="UTF-8"?><svg xmlns="http://www.w3.org/2000/svg" xmlns:xlink="http://www.w3.org/1999/xlink" height="480.0" preserveAspectRatio="xMidYMid meet" version="1.0" viewBox="16.0 16.0 480.0 480.0" width="480.0" zoomAndPan="magnify"><g data-name="Outline" id="change1_1"><circle cx="256" cy="456" fill="inherit" r="8"/><path d="M341.06,363A184.49,184.49,0,0,0,440,200C440,98.54,357.46,16,256,16S72,98.54,72,200a184.49,184.49,0,0,0,98.94,163C68.1,370.75,16,392.59,16,428c0,56.2,130.51,68,240,68s240-11.8,240-68C496,392.59,443.9,370.75,341.06,363ZM88,200c0-92.64,75.36-168,168-168s168,75.36,168,168a168.5,168.5,0,0,1-98.24,152.83,7.86,7.86,0,0,0-2.34,1.62l-62.15,62.32a8,8,0,0,1-10.14.37l-22.31-22.36-.08-.08-40.16-40.25a7.86,7.86,0,0,0-2.34-1.62A168.5,168.5,0,0,1,88,200ZM256,480c-138.17,0-224-19.93-224-52,0-26.21,57.34-44.42,157.34-50.14l15.54,15.57C154.64,396.26,88,404.44,88,428c0,26.62,84.95,33.63,135.58,35.43h.29a8,8,0,0,0,.28-16C147.56,444.71,112,433.71,104.86,428c7-5.6,41.52-16.29,115.3-19.26l20,20.07a23.7,23.7,0,0,0,15.65,5.86,24.78,24.78,0,0,0,16.35-6.23l19.65-19.7c73.78,3,108.26,13.66,115.29,19.26-7.16,5.71-42.69,16.71-119.28,19.44a8,8,0,0,0,.28,16h.29C339.06,461.63,424,454.62,424,428c0-23.55-66.63-31.74-116.87-34.57l15.53-15.57C422.67,383.58,480,401.79,480,428,480,460.07,394.17,480,256,480Z" fill="inherit"/><path d="M408,200c0-83.81-68.19-152-152-152S104,116.19,104,200s68.19,152,152,152S408,283.81,408,200Zm-288,0c0-75,61-136,136-136s136,61,136,136S331,336,256,336,120,275,120,200Z" fill="inherit"/><path d="M272,280v2.14A21.88,21.88,0,0,0,293.86,304h4.28A21.88,21.88,0,0,0,320,282.14v-3.72a24.37,24.37,0,0,0,16-22.81V200h8a16,16,0,0,0,16-16V160a16,16,0,0,0-16-16h-8V120.39A24.43,24.43,0,0,0,311.61,96H200.39A24.43,24.43,0,0,0,176,120.39V144h-8a16,16,0,0,0-16,16v24a16,16,0,0,0,16,16h8v55.61a24.37,24.37,0,0,0,16,22.81v3.72A21.88,21.88,0,0,0,213.86,304h4.28A21.88,21.88,0,0,0,240,282.14V280Zm32,2.14a5.86,5.86,0,0,1-5.86,5.86h-4.28a5.86,5.86,0,0,1-5.86-5.86V280h16ZM311.61,264H200.39a8.41,8.41,0,0,1-8.39-8.39V208H320v47.61A8.41,8.41,0,0,1,311.61,264ZM320,192H192V152H320Zm24-32v24h-8V160ZM200.39,112H311.61a8.41,8.41,0,0,1,8.39,8.39V136H192V120.39A8.41,8.41,0,0,1,200.39,112ZM168,184V160h8v24Zm56,98.14a5.86,5.86,0,0,1-5.86,5.86h-4.28a5.86,5.86,0,0,1-5.86-5.86V280h16Z" fill="inherit"/><circle cx="216" cy="240" fill="inherit" r="8"/><circle cx="296" cy="240" fill="inherit" r="8"/></g></svg>